PathFileType	4	(X/Y/Z)	OpenSim_Sub05_CSStiffKnee_Gyro.trc
DataRate	CameraRate	NumFrames	NumMarkers	Units	OrigDataRate	OrigDataStartFrame	OrigNumFrames
100	100	13	8	m	100	2813	11248
Frame#	Time	torso_imu_offset_imu	pelvis_imu_offset_imu	tibia_r_imu_offset_imu	femur_r_imu_offset_imu	tibia_l_imu_offset_imu	femur_l_imu_offset_imu	toes_r_imu_offset_imu	toes_l_imu_offset_imu
				X1	Y1	Z1	X2	Y2	Z2	X3	Y3	Z3	X4	Y4	Z4	X5	Y5	Z5	X6	Y6	Z6	X7	Y7	Z7	X8		Y8	Z8	

2813	28.12000000	-0.04879473	0.17634680	-0.11500013	-0.39711760	-0.30159338	0.05512833	-0.17713657	0.04278114	-1.10264897	-0.38820416	0.15892570	-0.31663673	0.25250393	-0.25091058	-0.32075291	-0.24211492	-0.05091813	-0.35890220	-0.02035516	-0.83196565	-0.51344832	0.32717875	0.26584423	-0.06888185
2814	28.13000000	-0.09521464	0.19257125	-0.15841000	-0.35753068	-0.30083644	0.08252401	-0.19269169	0.05693220	-1.17729504	-0.53686902	0.19605925	-0.30261376	0.21704748	-0.28042846	-0.05387039	-0.19406129	-0.12936989	-0.37572123	-0.05122870	-1.01037227	-0.48384114	0.30886504	0.07118875	0.03778347
2815	28.14000000	-0.15228536	0.20892980	-0.18726351	-0.32160431	-0.31666436	0.12702613	-0.18283978	0.06046254	-1.23118461	-0.68619026	0.25254803	-0.25312634	0.10682840	-0.31709521	0.19866073	-0.10050666	-0.23674029	-0.34391800	-0.11667817	-1.19660903	-0.42532937	0.24449771	-0.14576212	0.10339586
2816	28.15000000	-0.21840544	0.22134490	-0.21419334	-0.29539269	-0.34894261	0.17870822	-0.18749819	0.08905487	-1.31034565	-0.72661656	0.33293486	-0.19237500	0.05206866	-0.34394731	0.40395110	0.02824007	-0.32274668	-0.25114100	-0.18395286	-1.39904498	-0.35677425	0.40522238	-0.30337003	0.12155249
2817	28.16000000	-0.30171413	0.22682071	-0.23062361	-0.29305079	-0.39116420	0.24317460	-0.12576396	0.11760622	-1.41790880	-0.64965336	0.39599040	-0.10753827	0.03308547	-0.38546978	0.60088263	0.19522489	-0.37365774	-0.11689187	-0.22489726	-1.62340555	-0.29808411	-0.37293398	-0.76640878	0.30223357
2818	28.17000000	-0.38452553	0.23133526	-0.24514846	-0.29638926	-0.39510220	0.30315651	-0.04547948	0.13385487	-1.55598716	-0.55375163	0.42069591	0.01262984	-0.17387890	-0.51310368	0.73061275	0.36494798	-0.41715198	0.01847485	-0.25897661	-1.88177196	-0.25415680	-1.38673084	-1.72968399	0.49568747
2819	28.18000000	-0.46172851	0.23112926	-0.27212068	-0.27206330	-0.36049113	0.34148885	0.02055177	0.13193029	-1.72179882	-0.45454137	0.46187495	0.17248193	-0.23129749	-0.50953862	1.06369650	0.51372744	-0.41977909	0.11100934	-0.31155904	-2.19629073	-0.22100094	-0.11587518	-2.56582674	0.27087553
2820	28.19000000	-0.52288343	0.23247533	-0.30738444	-0.23758954	-0.30224665	0.35877073	0.00918841	0.12004884	-1.91237320	-0.36527113	0.52698592	0.36449095	-0.20101938	-0.47909485	1.61079863	0.64418101	-0.40806180	0.17604417	-0.35256311	-2.57994164	-0.21089367	0.14923054	-2.29605965	0.13353915
2821	28.20000000	-0.55784078	0.24350604	-0.34565880	-0.21041941	-0.21947152	0.35021337	-0.03474464	0.11759035	-2.11163412	-0.29735122	0.61741049	0.58209916	-0.24756024	-0.58474023	1.33548149	0.63008426	-0.46689897	0.24321686	-0.37993464	-3.05833098	-0.23677086	-0.69369523	-1.56844015	0.42175599
2822	28.21000000	-0.56045419	0.25288853	-0.37987011	-0.16493031	-0.13673066	0.29904469	0.00901092	0.07940126	-2.28318920	-0.21484975	0.74968225	0.82857766	0.08668548	-0.53353986	0.70431903	0.48525971	-0.48859733	0.30591200	-0.39934244	-3.62630755	-0.30683562	-0.13242413	-1.63230951	0.69212102
2823	28.22000000	-0.55332171	0.19586161	-0.41929813	-0.14715134	-0.09009233	0.17171177	0.04769309	-0.01010138	-2.48305220	-0.08262354	0.88506715	1.11206432	0.17391945	-0.35711709	0.79614052	0.45384803	-0.35498533	0.29908649	-0.37223299	-4.29409780	-0.41740802	0.28486773	-1.66211330	0.61337543
2824	28.23000000	-0.55815383	0.08913214	-0.44634437	-0.13797668	-0.09504600	-0.00401751	0.10632621	-0.09855775	-2.64257801	0.07253552	0.97217428	1.43262467	-0.27140053	-0.30605502	1.13726440	0.49923244	-0.16998961	0.21009990	-0.42157662	-5.01241525	-0.57583767	0.13343159	-1.20680714	0.35694800
2825	28.24000000	-0.56364859	-0.01538731	-0.45911326	-0.09301654	-0.13641402	-0.19359849	0.22773895	-0.17263325	-2.67362862	0.23439571	0.99604387	1.76005713	-0.62874645	-0.34629708	1.27674289	0.44143235	-0.02359697	0.11562641	-0.61293842	-5.67651556	-0.80717482	0.08335767	-0.97469824	0.26279818
